<svg xmlns="http://www.w3.org/2000/svg" version="1.1" xmlns:xlink="http://www.w3.org/1999/xlink" xmlns:svgjs="http://svgjs.com/svgjs" width="1500" height="600" preserveAspectRatio="none" viewBox="0 0 1500 600"><g mask="url(&quot;#SvgjsMask1201&quot;)" fill="none"><path d="M812.46 718.91C927.78 686 861.73 377.34 1133.15 362.16 1404.56 346.98 1609.85 213.15 1774.52 212.16" stroke="rgba(61, 206, 80, 1)" stroke-width="2"></path><path d="M193.78 695.11C397.29 685.14 535.8 338.31 922.73 330.58 1309.66 322.85 1465.32 175.45 1651.68 174.58" stroke="rgba(61, 206, 80, 1)" stroke-width="2"></path><path d="M457.36 646.89C629.68 626.91 733.05 245.11 1022.1 243.67 1311.15 242.23 1440.37 398.24 1586.84 399.67" stroke="rgba(61, 206, 80, 1)" stroke-width="2"></path><path d="M314.35 692.66C486.34 636.29 516.57 149.97 777 135.82 1037.42 121.67 1008.32 210.82 1239.64 210.82 1470.97 210.82 1585.12 136.06 1702.29 135.82" stroke="rgba(61, 206, 80, 1)" stroke-width="2"></path><path d="M464.2 604.19C614.83 536.59 546.94 62.23 837.45 59.36 1127.96 56.49 1388.39 290.64 1583.95 293.36" stroke="rgba(61, 206, 80, 1)" stroke-width="2"></path></g><defs><mask id="SvgjsMask1201"><rect width="1500" height="600" fill="#ffffff"></rect></mask></defs></svg>