<svg xmlns="http://www.w3.org/2000/svg" version="1.1" xmlns:xlink="http://www.w3.org/1999/xlink" xmlns:svgjs="http://svgjs.com/svgjs" width="1920" height="1080" preserveAspectRatio="none" viewBox="0 0 1920 1080"><g mask="url(&quot;#SvgjsMask1017&quot;)" fill="none"><rect width="1920" height="1080" x="0" y="0" fill="rgba(246, 248, 248, 1)"></rect><path d="M428.29 1207.85C719.62 1158.01 870.45 441.23 1327.2 439.93 1783.94 438.63 1975.87 870.93 2226.1 882.73" stroke="rgba(114, 176, 29, 1)" stroke-width="2"></path><path d="M628.38 1224.36C818.9 1121.75 730.62 486.55 1077.11 484.16 1423.6 481.77 1728.04 884.98 1974.56 894.56" stroke="rgba(114, 176, 29, 1)" stroke-width="2"></path><path d="M394 1204.65C597.43 1145.8 649.97 583.42 957.9 572.56 1265.84 561.7 1239.85 707.56 1521.81 707.56 1803.76 707.56 1940.75 573.5 2085.71 572.56" stroke="rgba(114, 176, 29, 1)" stroke-width="2"></path><path d="M1066.06 1258.6C1208.23 1247.07 1255.29 995.34 1552.58 960.55 1849.88 925.76 1883.63 585.44 2039.11 560.95" stroke="rgba(114, 176, 29, 1)" stroke-width="2"></path><path d="M312.1 1279.09C540.13 1180.84 552.27 491.53 883.43 466.71 1214.59 441.89 1169.1 601.71 1454.77 601.71 1740.43 601.71 1879.34 467.62 2026.1 466.71" stroke="rgba(114, 176, 29, 1)" stroke-width="2"></path></g><defs><mask id="SvgjsMask1017"><rect width="1920" height="1080" fill="#ffffff"></rect></mask></defs></svg>